<svg width="128" height="128" viewBox="0 0 128 128" fill="none" xmlns="http://www.w3.org/2000/svg">
<path d="M63 124C96.6894 124 124 96.6894 124 63C124 29.3106 96.6894 2 63 2C29.3106 2 2 29.3106 2 63C2 96.6894 29.3106 124 63 124Z" fill="#2563EB"/>
<path opacity="0.9" d="M91.1462 39.3913L67.0134 15.2585C62.5707 10.8158 55.6569 10.5265 51.571 14.6124L43.248 22.9354C39.1621 27.0213 39.4513 33.9351 43.8941 38.3779L68.0269 62.5107C72.4696 66.9534 79.3834 67.2426 83.4693 63.1567L91.7923 54.8338C95.8782 50.7479 95.5889 43.834 91.1462 39.3913Z" fill="white"/>
<path opacity="0.7" d="M106.034 78.7162L86.1594 58.8415C82.5006 55.1827 76.1449 55.6062 71.9637 59.7875L63.4464 68.3047C59.2652 72.486 58.8416 78.8416 62.5005 82.5004L82.3751 102.375C86.0339 106.034 92.3896 105.61 96.5709 101.429L105.088 92.9119C109.269 88.7306 109.693 82.375 106.034 78.7162Z" fill="white"/>
<path opacity="0.5" d="M74.9431 80.8133L52.1595 58.0296C47.9651 53.8353 41.1888 53.8112 37.0242 57.9758L28.5408 66.4592C24.3761 70.6239 24.4002 77.4002 28.5946 81.5945L51.3782 104.378C55.5726 108.573 62.3489 108.597 66.5135 104.432L74.9969 95.9486C79.1616 91.7839 79.1375 85.0076 74.9431 80.8133Z" fill="white"/>
<path d="M63 75C69.6274 75 75 69.6274 75 63C75 56.3726 69.6274 51 63 51C56.3726 51 51 56.3726 51 63C51 69.6274 56.3726 75 63 75Z" fill="white"/>
</svg>
